<svg xmlns="http://www.w3.org/2000/svg" viewBox="0 0 100 100">
  <defs>
    <linearGradient id="grad" x1="0%" y1="0%" x2="100%" y2="100%">
      <stop offset="0%" style="stop-color:#6366f1;stop-opacity:1" />
      <stop offset="100%" style="stop-color:#8b5cf6;stop-opacity:1" />
    </linearGradient>
  </defs>
  <circle cx="50" cy="50" r="45" fill="url(#grad)"/>
  <circle cx="30" cy="35" r="6" fill="white" opacity="0.9"/>
  <circle cx="50" cy="30" r="5" fill="white" opacity="0.9"/>
  <circle cx="70" cy="35" r="6" fill="white" opacity="0.9"/>
  <circle cx="35" cy="55" r="5" fill="white" opacity="0.9"/>
  <circle cx="50" cy="60" r="7" fill="white" opacity="0.9"/>
  <circle cx="65" cy="55" r="5" fill="white" opacity="0.9"/>
  <circle cx="40" cy="75" r="4" fill="white" opacity="0.9"/>
  <circle cx="60" cy="75" r="4" fill="white" opacity="0.9"/>
  <line x1="30" y1="35" x2="50" y2="30" stroke="white" stroke-width="1.5" opacity="0.6"/>
  <line x1="50" y1="30" x2="70" y2="35" stroke="white" stroke-width="1.5" opacity="0.6"/>
  <line x1="30" y1="35" x2="35" y2="55" stroke="white" stroke-width="1.5" opacity="0.6"/>
  <line x1="70" y1="35" x2="65" y2="55" stroke="white" stroke-width="1.5" opacity="0.6"/>
  <line x1="35" y1="55" x2="50" y2="60" stroke="white" stroke-width="1.5" opacity="0.6"/>
  <line x1="65" y1="55" x2="50" y2="60" stroke="white" stroke-width="1.5" opacity="0.6"/>
  <line x1="50" y1="60" x2="40" y2="75" stroke="white" stroke-width="1.5" opacity="0.6"/>
  <line x1="50" y1="60" x2="60" y2="75" stroke="white" stroke-width="1.5" opacity="0.6"/>
</svg>
